<?xml version="1.0" encoding="UTF-8" standalone="no"?><!DOCTYPE svg PUBLIC "-//W3C//DTD SVG 1.1//EN" "http://www.w3.org/Graphics/SVG/1.1/DTD/svg11.dtd"><svg width="100%" height="100%" viewBox="0 0 1480 1150" version="1.1" xmlns="http://www.w3.org/2000/svg" xmlns:xlink="http://www.w3.org/1999/xlink" xml:space="preserve" xmlns:serif="http://www.serif.com/" style="fill-rule:evenodd;clip-rule:evenodd;stroke-linejoin:round;stroke-miterlimit:2;"><g><path d="M763.713,468.642c-30.725,10.816 -60.092,14.229 -88.03,10.254c-29.812,-4.2 -55.97,-15.725 -78.433,-34.538c-22.525,-18.775 -39.5,-43.233 -50.988,-73.337c-11.095,-29.146 -14.004,-58.563 -8.612,-88.275c5.329,-29.675 18.029,-56.417 37.954,-80.171c19.983,-23.754 44.988,-41.358 75.134,-52.863c38.679,-14.749 75.42,-15.745 110.095,-2.97c34.713,12.758 64.563,37.646 89.625,74.604l-203.67,172.104c14.225,11.563 30.262,18.713 47.999,21.508c17.775,2.813 35.963,0.663 54.638,-6.466c24.829,-9.475 45.675,-27.25 62.55,-53.392l49.658,37.704c-8.333,11.771 -17.829,22.654 -28.421,32.621c-6.229,-2.788 -12.975,-4.175 -20.229,-4.175c-12.945,0 -24.371,4.392 -34.291,13.217c-9.967,8.779 -15.009,19.616 -15.009,32.541c0,0.546 0.013,1.092 0.03,1.634Zm-154.234,-209.592c-10.375,25.842 -9.962,53.642 1.346,83.258c2.717,7.15 5.079,12.542 7.033,16.192l148.425,-129.671c-13.362,-13.537 -28.558,-22.8 -45.516,-27.817c-16.975,-5.004 -35.259,-3.812 -54.854,3.671c-27.192,10.371 -46.063,28.521 -56.434,54.367Z" style="fill:#070707;"/><path d="M970.825,425.821l0,-271.413l71.342,0l-0,317.621l-44.317,0c0.171,-1.637 0.254,-3.312 0.254,-5.021c0,-12.925 -4.816,-23.762 -14.537,-32.541c-3.971,-3.634 -8.217,-6.513 -12.742,-8.646Zm7.658,-414.113c8.654,-7.695 18.617,-11.525 29.909,-11.525c11.25,0 21.095,3.83 29.516,11.525c8.479,7.659 12.68,17.113 12.68,28.384c-0,11.233 -4.201,20.708 -12.68,28.383c-8.421,7.658 -18.266,11.488 -29.516,11.488c-11.292,-0 -21.255,-3.83 -29.909,-11.488c-8.696,-7.675 -13.087,-17.15 -13.087,-28.383c-0,-11.271 4.391,-20.725 13.087,-28.384Z" style="fill:#070707;"/><path d="M1446.47,168.579c19.416,17.659 29.4,40.554 29.908,68.667l0,234.767l-72.104,-0l0,-210.213c-1.037,-17.896 -6.387,-31.958 -16.137,-42.196c-9.667,-10.216 -24.263,-15.608 -43.68,-16.096c-28.187,0 -51.416,11.234 -69.858,33.738c-18.379,22.504 -27.6,51.158 -27.6,85.933l-0,148.834l-71.342,-0l0,-317.617l64.425,-0l4.613,61.379c11.229,-23.012 28.129,-41.063 50.654,-54.092c22.483,-13.05 48.308,-19.554 77.475,-19.554c29.671,0 54.229,8.809 73.646,26.45Z" style="fill:#070707;fill-rule:nonzero;"/><path d="M1474.32,944.113c-1.004,35.579 -3.888,76.762 -10.909,94.229c-11.195,27.775 -30.133,52.166 -56.9,73.191c-26.287,20.663 -54.52,32.846 -84.649,36.5c-30.046,3.659 -58.705,-0.462 -86.021,-12.308c-27.271,-11.8 -50.288,-29.733 -69.017,-53.583c-30.696,-39.092 -45.388,-79.846 -44.029,-122.15l60.425,-0.584c0.308,13.096 2.508,26.667 6.558,40.817c4.113,14.104 11.017,27.271 20.692,39.613c11.987,15.258 26.696,26.137 44.183,32.733c17.467,6.608 35.617,8.317 54.438,5.154c18.829,-3.146 36.279,-11.017 52.321,-23.604c16.05,-12.609 28.512,-27.642 34.891,-45.929c4.75,-13.609 6.809,-61.559 7.525,-92.271l-0.117,-74.858c-23.208,16.508 -49.433,26.087 -78.658,28.687c-30.358,2.696 -61.162,-2.95 -92.479,-16.917c-30.375,-13.558 -54.833,-32.154 -73.354,-55.833c-18.596,-23.696 -29.517,-50.283 -32.875,-79.758c-3.359,-29.538 1.817,-59.679 15.587,-90.525c12.7,-28.484 31.217,-51.459 55.538,-68.884c24.304,-17.425 51.75,-27.446 82.321,-30.062c30.512,-2.6 61.225,2.971 92.066,16.721c11.346,5.066 21.821,10.841 31.425,17.329l-0.029,-19.488l71.363,0l-0.013,350.879c0.196,8.726 0.271,22.305 0.009,37.863l0.004,12.542l-0.296,0.496Zm-70.871,-274.575c-0.892,-4.325 -2.05,-8.638 -3.479,-12.934c-9.084,-27.291 -27.171,-47 -54.288,-59.092c-17.737,-7.933 -35.67,-10.47 -53.72,-7.6c-18.071,2.851 -34.634,10.159 -49.68,21.938c-15.1,11.758 -26.641,26.762 -34.77,44.967c-8.126,18.229 -11.584,36.845 -10.255,55.929c1.271,19.067 7.071,36.2 17.384,51.437c10.237,15.238 24.05,26.705 41.316,34.4c27.096,12.092 53.78,12.542 80.075,1.309c26.275,-11.25 45.809,-31.1 58.525,-59.6c4.15,-9.3 7.138,-18.542 8.959,-27.725l-0.067,-43.029Z" style="fill:#070707;"/><path d="M785.458,440.971c7.938,-7.063 17.075,-10.571 27.434,-10.571c10.32,0 19.35,3.508 27.071,10.571c7.779,7.021 11.629,15.696 11.629,26.033c-0,10.304 -3.85,18.992 -11.629,26.033c-7.721,7.025 -16.751,10.538 -27.071,10.538c-10.359,0 -19.496,-3.513 -27.434,-10.538c-7.975,-7.041 -12.004,-15.729 -12.004,-26.033c0,-10.337 4.029,-19.012 12.004,-26.033Z" style="fill:#070707;"/><path d="M922.2,440.971c7.938,-7.063 17.079,-10.571 27.433,-10.571c10.321,0 19.35,3.508 27.075,10.571c7.775,7.021 11.63,15.696 11.63,26.033c-0,10.304 -3.855,18.992 -11.63,26.033c-7.725,7.025 -16.754,10.538 -27.075,10.538c-10.354,0 -19.495,-3.513 -27.433,-10.538c-7.971,-7.041 -12.004,-15.729 -12.004,-26.033c-0,-10.337 4.033,-19.012 12.004,-26.033Z" style="fill:#070707;"/><path d="M890.337,936.896c13.18,11.983 19.955,27.525 20.3,46.604l0,159.342l-48.937,-0l-0,-142.675c-0.704,-12.146 -4.338,-21.692 -10.954,-28.642c-6.563,-6.933 -16.467,-10.592 -29.646,-10.925c-19.133,-0 -34.896,7.625 -47.413,22.9c-12.479,15.271 -18.737,34.725 -18.737,58.325l0,101.017l-48.421,-0l0,-215.575l43.729,-0l3.13,41.662c7.625,-15.621 19.091,-27.871 34.379,-36.717c15.262,-8.854 32.791,-13.27 52.587,-13.27c20.138,-0 36.804,5.979 49.983,17.954Z" style="fill:#070707;fill-rule:nonzero;"/><path d="M1045.56,936.896c13.18,11.983 19.955,27.525 20.296,46.604l0,159.342l-48.937,-0l-0,-142.675c-0.7,-12.146 -4.334,-21.692 -10.95,-28.642c-6.563,-6.933 -16.467,-10.592 -29.646,-10.925c-19.133,-0 -34.9,7.625 -47.417,22.9c-12.475,15.271 -18.733,34.725 -18.733,58.325l-0,101.017l-48.421,-0l0,-215.575l37.354,41.662c7.625,-15.621 23.413,-28.737 38.7,-37.579c15.259,-8.858 37.971,-12.408 57.767,-12.408c20.141,-0 36.808,5.979 49.987,17.954Z" style="fill:#070707;fill-rule:nonzero;"/><path d="M631.071,927.271l-0,215.575l-43.767,-0l-3.087,-41.129c-0.35,-1.813 -0.696,-13.538 -0.975,-27.371c-0.35,-17.379 6.696,-39.729 6.696,-48.238l-7.288,-39.22l-0,-59.617l48.421,-0Z" style="fill:#070707;fill-rule:nonzero;"/><path d="M442.833,1043c0.863,12.941 4.8,24.567 11.804,34.908c6.946,10.342 16.321,18.125 28.042,23.35c18.388,8.208 36.5,8.513 54.346,0.888c17.833,-7.638 31.092,-21.109 39.725,-40.45c8.617,-19.321 9.838,-38.267 3.671,-56.804c-6.163,-18.521 -18.442,-31.901 -36.846,-40.109c-12.037,-5.379 -24.208,-7.104 -36.462,-5.154c-12.263,1.933 -23.505,6.892 -33.717,14.887c-10.25,7.984 -18.083,18.167 -23.6,30.521c-5.517,12.371 -7.863,25.009 -6.963,37.963Zm0.146,-105.142c16.496,-11.829 35.125,-18.629 55.875,-20.408c20.708,-1.763 41.554,2.017 62.488,11.35c20.937,9.35 37.495,22.262 49.72,38.716c12.226,16.496 12.638,38.721 14.6,58.596c1.963,19.888 5.263,35.621 -3.512,55.271c-8.779,19.663 -21.271,35.467 -37.458,47.454c-16.175,11.971 -34.554,18.892 -55.117,20.725c-20.604,1.825 -41.512,-2.004 -62.767,-11.483c-20.616,-9.204 -37.216,-21.825 -49.787,-37.896c-12.621,-16.083 -20.033,-34.125 -22.317,-54.133c-2.279,-20.05 1.234,-40.509 10.583,-61.442c8.617,-19.333 21.188,-34.925 37.692,-46.75Z" style="fill:#070707;fill-rule:nonzero;"/><path d="M212.629,1139.21c-14.437,-5.554 -26.133,-13.708 -35.162,-24.487l20.841,-28.109c8.646,8.338 17.767,14.755 27.342,19.263c9.546,4.521 18.975,6.775 28.358,6.775c11.471,0 20.859,-2.254 28.138,-6.775c7.266,-4.508 10.912,-11.454 10.912,-20.829c0,-7.292 -2.229,-13.192 -6.775,-17.7c-4.496,-4.509 -9.612,-7.821 -15.329,-9.892c-5.754,-2.096 -15.379,-5.225 -28.904,-9.387c-36.821,-11.8 -55.196,-32.8 -55.196,-63.004c0,-18.046 6.684,-33.505 20.021,-46.355c13.379,-12.82 32.046,-19.262 55.979,-19.262c15.3,-0 28.838,1.921 40.65,5.725c11.775,3.846 22.725,9.904 32.779,18.233l-19.254,29.7c-5.554,-5.916 -12.596,-10.608 -21.079,-14.071c-8.529,-3.458 -16.588,-5.383 -24.212,-5.725c-9.746,0 -18.071,2.346 -24.992,7.013c-6.975,4.692 -10.45,11.033 -10.45,19.012c-0,6.592 2.267,12.067 6.762,16.417c4.546,4.333 9.242,7.462 14.08,9.358c4.854,1.925 14.399,5.134 28.641,9.625c17.725,5.929 31.488,13.554 41.379,22.925c9.904,9.375 14.879,22.05 14.879,38.03c0,20.799 -7.32,37.999 -21.879,51.537c-14.583,13.55 -35.241,20.312 -61.958,20.312c-16.004,0 -31.171,-2.8 -45.571,-8.329Z" style="fill:#070707;fill-rule:nonzero;"/><path d="M109.337,612.812c-19.183,14.809 -31.587,34.792 -37.174,59.817l-0,59.854c6.112,23.034 19.141,41.825 39.07,56.396c20.004,14.592 42.759,21.879 68.292,21.879c19.496,0 37.35,-4.766 53.721,-14.2c16.371,-9.454 29.4,-22.525 39.129,-39.15c9.75,-16.625 14.592,-35.416 14.592,-56.358c-0,-20.492 -4.842,-39.125 -14.592,-56.025c-9.729,-16.879 -22.758,-30.2 -39.129,-39.871c-16.371,-9.746 -34.225,-14.591 -53.721,-14.591c-27.604,-0 -51.004,7.404 -70.188,22.249Zm-109.337,518.651l0,-594.6l72.163,-0l-0,49.87c15.333,-17.933 34.125,-31.979 56.358,-42.216c22.25,-10.234 46.687,-15.334 73.254,-15.334c29.696,0 56.533,7.171 80.583,21.471c24.025,14.317 42.821,34.4 56.359,60.225c13.596,25.825 20.354,55.617 20.354,89.392c-0,34.262 -7.15,64.054 -21.509,89.391c-14.299,25.296 -34.008,44.596 -59.075,57.921c-25.004,13.284 -53.425,19.946 -85.112,19.946c-24.046,0 -47.217,-4.983 -69.467,-14.967c-22.229,-9.962 -39.75,-23.654 -52.545,-41.062l-0,319.963l-71.363,-0Z" style="fill:#070707;fill-rule:nonzero;"/><path d="M575.283,571.379c15.042,-13.283 31.063,-23.521 47.959,-30.692c16.879,-7.145 31.687,-10.975 44.483,-11.504l-3.05,71.363c-23.05,-1.017 -43.854,3.575 -62.529,13.791c-18.675,10.275 -33.25,24.438 -43.738,42.605c-10.491,18.146 -15.746,37.45 -15.746,57.921l0,145.008l-71.341,-0l-0,-317.617l63.683,0l5.354,75.167c8.184,-17.367 19.825,-32.721 34.925,-46.042Z" style="fill:#070707;fill-rule:nonzero;"/><path d="M978.758,760.692c12.775,-25.534 14.592,-53.896 5.53,-85.034c-2.209,-7.521 -4.105,-13.246 -5.805,-17.112l-162.116,119.962c12.5,14.904 27.171,25.629 44.071,32.192c16.895,6.508 35.65,6.758 56.258,0.742c28.658,-8.338 49.346,-25.238 62.062,-50.75Zm-198.612,-114.709l-47.546,-42.625c13.379,-15.862 28.812,-29.754 46.338,-41.687c17.541,-11.917 35.316,-20.492 53.445,-25.767c34.655,-10.079 67.025,-11.779 97.088,-4.983c30.046,6.779 55.775,20.671 77.146,41.729c21.429,21.017 36.704,47.35 45.925,79.017c8.929,30.633 9.437,60.891 1.504,90.779c-7.95,29.85 -23.05,56.046 -45.4,78.646c-22.309,22.545 -49.325,38.446 -80.971,47.666c-40.712,11.859 -78.237,9.825 -112.579,-6.037c-34.325,-15.921 -62.767,-43.758 -85.271,-83.529l222.033,-158.721c-13.596,-12.933 -29.321,-21.567 -47.216,-25.867c-17.855,-4.375 -36.625,-3.65 -56.221,2.054c-26.117,7.617 -48.913,24.025 -68.275,49.325Z" style="fill:#070707;fill-rule:nonzero;"/></g></svg>